<svg width="21" height="21" viewBox="0 0 21 21" fill="none" xmlns="http://www.w3.org/2000/svg">
<path d="M18.205 15.392C15.736 18.681 10.464 17.571 7.083 17.73C7.083 17.73 6.484 17.764 5.882 17.863C5.882 17.863 6.11 17.766 6.401 17.665C8.775 16.844 9.897 16.679 11.34 15.938C14.05 14.55 16.748 11.525 17.297 8.38301C16.265 11.405 13.127 14.006 10.27 15.062C8.315 15.784 4.778 16.486 4.777 16.486C4.72895 16.4614 4.68128 16.4361 4.634 16.41C2.229 15.24 2.159 10.03 6.528 8.35101C8.444 7.61501 10.275 8.01901 12.346 7.52601C14.554 7.00101 17.112 5.34601 18.151 3.18201C19.316 6.64001 20.716 12.048 18.205 15.392ZM18.247 2.11201C17.9677 2.78176 17.6102 3.41615 17.182 4.00201C16.2512 3.04265 15.1372 2.28003 13.906 1.75936C12.6749 1.2387 11.3517 0.970617 10.015 0.971009C4.492 0.971009 1.09429e-06 5.46301 1.09429e-06 10.985C-0.000643809 12.3624 0.283767 13.7251 0.835342 14.9873C1.38692 16.2494 2.19372 17.3838 3.205 18.319L3.425 18.513C3.26465 18.3524 3.17464 18.1347 3.17478 17.9077C3.17493 17.6807 3.2652 17.4631 3.42575 17.3027C3.58631 17.1423 3.804 17.0522 4.03096 17.0522C4.25793 17.0523 4.47558 17.1425 4.63607 17.3029C4.79656 17.4634 4.88674 17.6811 4.88678 17.908C4.88683 18.135 4.79674 18.3527 4.63632 18.5133C4.4759 18.6738 4.25828 18.7641 4.03131 18.7642C3.80435 18.7644 3.58662 18.6744 3.426 18.514L3.575 18.646C5.3754 20.1681 7.65739 21.0023 10.015 21C15.293 21 19.628 16.892 19.999 11.708C20.273 9.16901 19.523 5.94501 18.247 2.11201Z" fill="#5FB832"/>
</svg>
